<svg width="12" height="21" viewBox="0 0 12 21" fill="none" xmlns="http://www.w3.org/2000/svg">
<path d="M10.9604 2.56147C11.4658 2.08132 11.4656 1.27565 10.9599 0.79575C10.4901 0.349775 9.75322 0.349886 9.28346 0.796L0.489917 9.14697C0.33466 9.29354 0.211445 9.46782 0.127365 9.6598C0.0432855 9.85178 0 10.0577 0 10.2656C0 10.4735 0.0432855 10.6794 0.127365 10.8714C0.211445 11.0634 0.33466 11.2377 0.489917 11.3842L9.28351 19.7396C9.75315 20.1858 10.4901 20.1858 10.9597 19.7397C11.4647 19.26 11.4647 18.4551 10.9598 17.9754L4.37429 11.718C3.54442 10.9295 3.54448 9.60656 4.37442 8.81811L10.9604 2.56147Z" fill="#4E5866"/>
</svg>
